# xmcd
#
# Track frame offsets:
#	150
#	10635
#	21270
#	31590
#	45230
#	56097
#	67555
#	76650
#	88150
#	99775
#	111825
#	123887
#	135775
#	149210
#	162172
#	167257
#	173320
#	179967
#	186835
#	195925
#	203447
#	209805
#	216160
#	220025
#	226102
#	230710
#	236780
#	242305
#	254400
#	272730
#	276250
#	283075
#	287747
#	297567
#	308047
#	323100
#	328830
#	338677
#
# Disc length: 4652 seconds
#
# Revision: 1
# Processed by: cddbd v1.5.2PL0 Copyright (c) Steve Scherf et al.
# Submitted via: audiograbber 1.83.01
#
DISCID=17122a26
DTITLE=Cousin Emmy and her Kinfolks - 1939-1947
DYEAR=2007
DGENRE=Country
TTITLE0=I Wish I Was In Bowling Green
TTITLE1=Johnny booker
TTITLE2=Come On All You Virginia Gals
TTITLE3=Pretty Little Miss Out In the Garden
TTITLE4=Lonesome Road Blues
TTITLE5=I Wish I Was a Single Girl Again
TTITLE6=Chilly Scenes of Winter
TTITLE7=Barney-O-Barney
TTITLE8=Lost John
TTITLE9=Ruby
TTITLE10=Freight Train Blues
TTITLE11=Milk Cow Blues
TTITLE12=The Broken Hearted One You Left Alone
TTITLE13=Free Little Bird
TTITLE14=Opening theme - Little Old Log Cabin in the Lane
TTITLE15=Turkey in the Straw
TTITLE16=Groundhog
TTITLE17=Lost John
TTITLE18=Mother's Grave
TTITLE19=Sowing On the Mountain
TTITLE20=Some of These Days
TTITLE21=Ragtime Annie
TTITLE22=Closing Theme
TTITLE23=Opening Theme
TTITLE24=Irish Washerwoman (The Shining Fiddlers)
TTITLE25=Groundhog
TTITLE26=Truck Driver's Blues (Collard Bros.)
TTITLE27=Cacklin' Hen
TTITLE28=Little Joe
TTITLE29=Closing Theme
TTITLE30=Opening Theme
TTITLE31=Arkansas Traveler
TTITLE32=Fisher's Hornpipe
TTITLE33=Ruby
TTITLE34=Wonder Who Will Meet Me There
TTITLE35=Closing Theme
TTITLE36=Arkansas Traveler
TTITLE37=Sleepy Lou
EXTD=
EXTT0=
EXTT1=
EXTT2=
EXTT3=
EXTT4=
EXTT5=
EXTT6=
EXTT7=
EXTT8=
EXTT9=
EXTT10=
EXTT11=
EXTT12=
EXTT13=
EXTT14=
EXTT15=
EXTT16=
EXTT17=
EXTT18=
EXTT19=
EXTT20=
EXTT21=
EXTT22=
EXTT23=
EXTT24=
EXTT25=
EXTT26=
EXTT27=
EXTT28=
EXTT29=
EXTT30=
EXTT31=
EXTT32=
EXTT33=
EXTT34=
EXTT35=
EXTT36=
EXTT37=
PLAYORDER=
